<svg xmlns="http://www.w3.org/2000/svg" version="1.1" 
xmlnsxlink="http://www.w3.org/1999/xlink" xmlnssvgjs="http://svgjs.dev/svgjs" 
width="2000" height="1247" viewBox="0 0 2000 1247"><g 
transform="matrix(1,0,0,1,-1.2121212121212466,0.504858299595071)">
<svg viewBox="0 0 396 247" data-background-color="#ffffff" 
preserveAspectRatio="xMidYMid meet" height="1247" width="2000" xmlns="http://www.w3.org/2000/svg" xmlns:xlink="http://www.w3.org/1999/xlink"><g id="tight-bounds" transform="matrix(1,0,0,1,0.2400000000000091,-0.09999999999999432)"><svg viewBox="0 0 395.52 247.2" height="247.2" width="395.52"><g><svg></svg></g><g><svg viewBox="0 0 395.52 247.2" height="247.2" width="395.52"><g transform="matrix(1,0,0,1,75.54432,104.26143847041371)"><svg viewBox="0 0 244.43135999999998 38.67712305917257" height="38.67712305917257" width="244.43135999999998"><g><svg viewBox="0 0 244.43135999999998 38.67712305917257" height="38.67712305917257" width="244.43135999999998"><g><svg viewBox="0 0 244.43135999999998 38.67712305917257" height="38.67712305917257" width="244.43135999999998"><g><svg viewBox="0 0 244.43135999999998 38.67712305917257" height="38.67712305917257" width="244.43135999999998"><g><svg viewBox="0 0 244.43135999999998 38.67712305917257" height="38.67712305917257" width="244.43135999999998" id="textblock"><g><svg viewBox="0 0 244.43135999999998 38.67712305917257" height="38.67712305917257" width="244.43135999999998"><g transform="matrix(1,0,0,1,0,0)"><svg width="244.43135999999998" viewBox="1.399999976158142 -38 303.33001708984375 48" height="38.67712305917257" data-palette-color="#1ebbd7"><path d="M8.95 0L8.95-3.3 13.7-3.3 13.7-31.3 7.2-31.3 7.2-25.6 1.4-25.6 1.4-34.9 34.1-34.9 34.1-25.6 28.3-25.6 28.3-31.3 21.8-31.3 21.8-3.3 26.55-3.3 26.55 0 8.95 0ZM43.25 0.6L43.25 0.6Q39 0.6 37.07-1.38 35.15-3.35 35.15-6.9L35.15-6.9Q35.15-14.65 46.6-14.65L46.6-14.65 50.1-14.65 50.1-17.5Q50.1-20.55 48.95-22.1 47.8-23.65 44.95-23.65L44.95-23.65Q43.9-23.65 43.15-23.5 42.4-23.35 41.85-23.1L41.85-23.1 41.85-22.85Q42.35-22.6 42.82-21.95 43.3-21.3 43.3-20.2L43.3-20.2Q43.3-18.7 42.35-17.68 41.4-16.65 39.5-16.65L39.5-16.65Q38-16.65 37-17.7 36-18.75 36-20.35L36-20.35Q36-21.55 36.7-22.73 37.4-23.9 38.8-24.8 40.2-25.7 42.27-26.25 44.35-26.8 47.05-26.8L47.05-26.8Q52.5-26.8 55.1-24.48 57.7-22.15 57.7-17.9L57.7-17.9 57.7-3.3 60.7-3.3 60.7-0.45Q59.85 0.05 58.5 0.33 57.15 0.6 55.7 0.6L55.7 0.6Q52.95 0.6 51.82-0.68 50.7-1.95 50.7-3.85L50.7-3.85 50.7-3.95 50.4-3.95Q50.05-3.1 49.52-2.3 49-1.5 48.17-0.85 47.35-0.2 46.15 0.2 44.95 0.6 43.25 0.6ZM46.1-3.9L46.1-3.9Q47.95-3.9 49.02-4.75 50.1-5.6 50.1-7.7L50.1-7.7 50.1-11.65 47.4-11.65Q45-11.65 43.82-10.65 42.65-9.65 42.65-7.8L42.65-7.8 42.65-7Q42.65-5.4 43.6-4.65 44.55-3.9 46.1-3.9ZM63.4 0L63.4-3.3 66.39-3.3 66.39-32.35 63.4-33 63.4-35.85 74-38 74-3.3 77-3.3 77 0 63.4 0ZM93.04 0.6L93.04 0.6Q89.94 0.6 87.57-0.43 85.19-1.45 83.57-3.28 81.94-5.1 81.09-7.63 80.24-10.15 80.24-13.15L80.24-13.15Q80.24-16.3 81.12-18.85 81.99-21.4 83.62-23.15 85.24-24.9 87.52-25.85 89.79-26.8 92.59-26.8L92.59-26.8Q95.39-26.8 97.64-25.95 99.89-25.1 101.47-23.53 103.04-21.95 103.89-19.7 104.74-17.45 104.74-14.7L104.74-14.7 104.74-13 88.29-13 88.29-11Q88.29-7.65 90.04-5.95 91.79-4.25 94.69-4.25L94.69-4.25Q97.39-4.25 99.04-5.48 100.69-6.7 101.39-8.45L101.39-8.45 104.14-6.8Q103.69-5.55 102.84-4.25 101.99-2.95 100.64-1.88 99.29-0.8 97.39-0.1 95.49 0.6 93.04 0.6ZM88.29-16.85L88.29-16.15 96.89-16.15 96.89-16.85Q96.89-20.45 95.74-21.9 94.59-23.35 92.59-23.35L92.59-23.35Q90.59-23.35 89.44-21.9 88.29-20.45 88.29-16.85L88.29-16.85ZM108.49 0L108.49-3.3 111.49-3.3 111.49-21.15 108.49-21.8 108.49-24.65 118.94-26.8 118.94-21.85 119.19-21.85Q119.89-23.85 121.69-25.33 123.49-26.8 126.64-26.8L126.64-26.8Q131.44-26.8 133.41-24.38 135.39-21.95 135.39-17.1L135.39-17.1 135.39-3.3 138.39-3.3 138.39 0 125.04 0 125.04-3.3 127.79-3.3 127.79-16.85Q127.79-19.5 126.87-20.63 125.94-21.75 123.74-21.75L123.74-21.75Q122.89-21.75 122.04-21.53 121.19-21.3 120.54-20.83 119.89-20.35 119.49-19.63 119.09-18.9 119.09-17.85L119.09-17.85 119.09-3.3 121.84-3.3 121.84 0 108.49 0ZM150.09 0.5L150.09 0.5Q147.09 0.5 145.66-0.83 144.24-2.15 144.24-4.75L144.24-4.75 144.24-22.7 140.74-22.7 140.74-26.2 142.09-26.2Q143.74-26.2 144.51-26.93 145.29-27.65 145.99-29.1L145.99-29.1 148.09-33.45 151.84-33.45 151.84-26.2 157.59-26.2 157.59-22.7 151.84-22.7 151.84-3.4 157.59-3.4 157.59-0.45Q156.79-0.1 154.74 0.2 152.69 0.5 150.09 0.5ZM175.34 0.6L175.34 0.6Q173.84 0.6 172.61 0.28 171.39-0.05 170.46-0.58 169.54-1.1 168.91-1.73 168.29-2.35 167.99-2.9L167.99-2.9 167.79-2.9 167.79 0 161.99 0 161.99-10.2 167.79-10.2 167.79-8.05Q167.79-5.35 169.69-4.23 171.59-3.1 174.89-3.1L174.89-3.1Q178.34-3.1 180.01-4.5 181.69-5.9 181.69-8.15L181.69-8.15Q181.69-9.25 181.41-10.05 181.14-10.85 180.49-11.43 179.84-12 178.74-12.43 177.64-12.85 175.99-13.2L175.99-13.2 173.74-13.7Q171.19-14.2 169.06-15.08 166.94-15.95 165.44-17.35 163.94-18.75 163.11-20.7 162.29-22.65 162.29-25.3L162.29-25.3Q162.29-27.55 163.09-29.43 163.89-31.3 165.39-32.65 166.89-34 169.11-34.75 171.34-35.5 174.19-35.5L174.19-35.5Q175.74-35.5 176.96-35.18 178.19-34.85 179.11-34.35 180.04-33.85 180.64-33.23 181.24-32.6 181.54-32.05L181.54-32.05 181.74-32.05 181.74-34.9 187.54-34.9 187.54-24.7 181.74-24.7 181.74-26.9Q181.74-29.55 179.89-30.68 178.04-31.8 175.09-31.8L175.09-31.8Q171.69-31.8 170.11-30.38 168.54-28.95 168.54-26.95L168.54-26.95Q168.54-25.8 168.89-25 169.24-24.2 170.01-23.6 170.79-23 172.04-22.58 173.29-22.15 175.09-21.75L175.09-21.75 177.19-21.35Q179.79-20.8 181.86-19.93 183.94-19.05 185.36-17.7 186.79-16.35 187.54-14.53 188.29-12.7 188.29-10.3L188.29-10.3Q188.29-7.95 187.39-5.95 186.49-3.95 184.81-2.5 183.14-1.05 180.74-0.23 178.34 0.6 175.34 0.6ZM205.53 0.6L205.53 0.6Q202.38 0.6 200.01-0.45 197.63-1.5 196.01-3.35 194.38-5.2 193.56-7.7 192.73-10.2 192.73-13.15L192.73-13.15Q192.73-16.45 193.78-18.98 194.83-21.5 196.66-23.25 198.48-25 200.96-25.9 203.43-26.8 206.28-26.8L206.28-26.8Q210.88-26.8 213.36-24.9 215.83-23 215.83-20.1L215.83-20.1Q215.83-18.2 214.78-17.07 213.73-15.95 211.88-15.95L211.88-15.95Q210.03-15.95 209.03-16.93 208.03-17.9 208.03-19.5L208.03-19.5Q208.03-20.8 208.71-21.65 209.38-22.5 210.23-22.9L210.23-22.9 210.23-23.2Q209.73-23.35 209.06-23.5 208.38-23.65 207.23-23.65L207.23-23.65Q204.18-23.65 202.48-21.73 200.78-19.8 200.78-16.2L200.78-16.2 200.78-11Q200.78-7.7 202.33-5.98 203.88-4.25 206.63-4.25L206.63-4.25Q209.43-4.25 211.08-5.55 212.73-6.85 213.43-8.6L213.43-8.6 216.23-6.95Q215.78-5.7 214.96-4.35 214.13-3 212.83-1.9 211.53-0.8 209.73-0.1 207.93 0.6 205.53 0.6ZM231.88-3L231.88-3Q236.48-3 236.48-8.5L236.48-8.5 236.48-17.7Q236.48-23.2 231.88-23.2L231.88-23.2Q227.28-23.2 227.28-17.7L227.28-17.7 227.28-8.5Q227.28-3 231.88-3ZM231.88 0.6L231.88 0.6Q229.03 0.6 226.71-0.33 224.38-1.25 222.71-3 221.03-4.75 220.13-7.3 219.23-9.85 219.23-13.1L219.23-13.1Q219.23-16.35 220.13-18.9 221.03-21.45 222.71-23.2 224.38-24.95 226.71-25.88 229.03-26.8 231.88-26.8L231.88-26.8Q234.73-26.8 237.06-25.88 239.38-24.95 241.06-23.2 242.73-21.45 243.63-18.9 244.53-16.35 244.53-13.1L244.53-13.1Q244.53-9.85 243.63-7.3 242.73-4.75 241.06-3 239.38-1.25 237.06-0.33 234.73 0.6 231.88 0.6ZM247.78 10L247.78 6.7 250.78 6.7 250.78-21.15 247.78-21.8 247.78-24.65 258.38-26.8 258.38-22.3 258.68-22.3Q259.38-24.05 261.13-25.43 262.88-26.8 265.58-26.8L265.58-26.8Q267.98-26.8 269.9-25.83 271.83-24.85 273.18-23.05 274.53-21.25 275.25-18.73 275.98-16.2 275.98-13.1L275.98-13.1Q275.98-10 275.25-7.48 274.53-4.95 273.18-3.15 271.83-1.35 269.9-0.38 267.98 0.6 265.58 0.6L265.58 0.6Q262.73 0.6 261.03-0.73 259.33-2.05 258.63-3.8L258.63-3.8 258.38-3.8 258.38 6.7 262.38 6.7 262.38 10 247.78 10ZM263.03-4L263.03-4Q265.13-4 266.53-5.45 267.93-6.9 267.93-9.7L267.93-9.7 267.93-16.55Q267.93-19.35 266.53-20.8 265.13-22.25 263.03-22.25L263.03-22.25Q261.03-22.25 259.7-21 258.38-19.75 258.38-17.65L258.38-17.65 258.38-8.6Q258.38-6.5 259.7-5.25 261.03-4 263.03-4ZM293.03 0.6L293.03 0.6Q289.93 0.6 287.55-0.43 285.18-1.45 283.55-3.28 281.93-5.1 281.08-7.63 280.23-10.15 280.23-13.15L280.23-13.15Q280.23-16.3 281.1-18.85 281.98-21.4 283.6-23.15 285.23-24.9 287.5-25.85 289.78-26.8 292.58-26.8L292.58-26.8Q295.38-26.8 297.63-25.95 299.88-25.1 301.45-23.53 303.03-21.95 303.88-19.7 304.73-17.45 304.73-14.7L304.73-14.7 304.73-13 288.28-13 288.28-11Q288.28-7.65 290.03-5.95 291.78-4.25 294.68-4.25L294.68-4.25Q297.38-4.25 299.03-5.48 300.68-6.7 301.38-8.45L301.38-8.45 304.13-6.8Q303.68-5.55 302.83-4.25 301.98-2.95 300.63-1.88 299.28-0.8 297.38-0.1 295.48 0.6 293.03 0.6ZM288.28-16.85L288.28-16.15 296.88-16.15 296.88-16.85Q296.88-20.45 295.73-21.9 294.58-23.35 292.58-23.35L292.58-23.35Q290.58-23.35 289.43-21.9 288.28-20.45 288.28-16.85L288.28-16.85Z" opacity="1" transform="matrix(1,0,0,1,0,0)" fill="#1ebbd7" class="undefined-text-0" data-fill-palette-color="primary" id="text-0"></path></svg></g></svg></g></svg></g></svg></g></svg></g></svg></g></svg></g><path d="M212.973 98.261L212.973 35.693 388.787 35.693 388.787 211.507 212.973 211.507 212.973 148.939 216.461 148.939 216.461 208.019 385.299 208.019 385.299 39.181 216.461 39.181 216.461 98.261Z" fill="#1ebbd7" stroke="transparent" data-fill-palette-color="primary"></path></svg></g><defs></defs></svg><rect width="395.52" height="247.2" fill="none" stroke="none" visibility="hidden"></rect></g></svg></g></svg>