
<svg xmlns="http://www.w3.org/2000/svg" 

xmlnsxlink="http://www.w3.org/1999/xlink" 
xmlnssvgjs="http://svgjs.dev/svgjs" 

width="1000" height="257" 
viewBox="0 0 1000 257"><g transform="matrix(1,0,0,1,-0.6060606060606233,-0.3454081347259148)">
<svg viewBox="0 0 396 102" data-background-color="#ffffff" 
preserveAspectRatio="xMidYMid meet" height="257" width="1000" xmlns="http://www.w3.org/2000/svg" xmlns:xlink="http://www.w3.org/1999/xlink"><g id="tight-bounds" transform="matrix(1,0,0,1,0.2400000000000091,0.13708805347098973)"><svg viewBox="0 0 395.52 101.725823893058" height="101.725823893058" width="395.52"><g><svg viewBox="0 0 395.52 101.725823893058" height="101.725823893058" width="395.52"><g><svg viewBox="0 0 395.52 101.725823893058" height="101.725823893058" width="395.52"><g><svg viewBox="0 0 395.52 101.725823893058" height="101.725823893058" width="395.52" id="textblock"><g><rect width="395.52" height="80.90532601548702" fill="none" stroke-width="9.018103199999999" stroke="#31c48d" data-fill-palette-color="none" data-stroke-palette-color="tertiary"></rect><rect width="395.52" height="20.820497877570983" y="80.90532601548702" fill="#31c48d" data-fill-palette-color="tertiary"></rect></g><g><svg viewBox="0 0 395.52 80.90532601548702" height="80.90532601548702" width="395.52"><g transform="matrix(1,0,0,1,23.607599999999998,23.607599999999998)">
<svg width="348.3048" viewBox="0.20000000298023224 -35.29999923706055 368.0199890136719 35.599998474121094" 
height="33.690126015487024" data-palette-color="#31c48d">
<path d="M12.5 0L12.5-31.8 0.2-31.8 0.2-35 28.5-35 28.5-31.8 16.2-31.8 16.2 0 12.5 0ZM58.8 0L54.6-9.35 35.1-9.35 30.9 0 27.05 0 43.05-35 46.7-35 62.7 0 58.8 0ZM36.45-12.35L53.25-12.35 44.85-31.15 36.45-12.35ZM68.5 0L68.5-35 72.2-35 72.2-3.2 91.8-3.2 91.8 0 68.5 0ZM101.64-3.2L122.69-3.2 122.69 0 97.94 0 97.94-35 121.94-35 121.94-31.8 101.64-31.8 101.64-19.35 119.74-19.35 119.74-16.2 101.64-16.2 101.64-3.2ZM156.99-35L160.64-35 160.64 0 157.59 0 135.09-28.4 135.09 0 131.39 0 131.39-35 134.44-35 156.99-6.6 156.99-35ZM178.84 0L178.84-31.8 166.54-31.8 166.54-35 194.84-35 194.84-31.8 182.54-31.8 182.54 0 178.84 0ZM209.84 0.3Q205.94 0.3 202.36-0.95 198.79-2.2 196.84-4.25L196.84-4.25 198.29-7.1Q200.19-5.2 203.34-4.03 206.49-2.85 209.84-2.85L209.84-2.85Q214.54-2.85 216.89-4.58 219.24-6.3 219.24-9.05L219.24-9.05Q219.24-11.15 217.96-12.4 216.69-13.65 214.84-14.33 212.99-15 209.69-15.8L209.69-15.8Q205.74-16.8 203.39-17.73 201.04-18.65 199.36-20.55 197.69-22.45 197.69-25.7L197.69-25.7Q197.69-28.35 199.09-30.53 200.49-32.7 203.39-34 206.29-35.3 210.59-35.3L210.59-35.3Q213.59-35.3 216.46-34.48 219.34-33.65 221.44-32.2L221.44-32.2 220.19-29.25Q217.99-30.7 215.49-31.43 212.99-32.15 210.59-32.15L210.59-32.15Q205.99-32.15 203.66-30.38 201.34-28.6 201.34-25.8L201.34-25.8Q201.34-23.7 202.61-22.43 203.89-21.15 205.81-20.48 207.74-19.8 210.99-19L210.99-19Q214.84-18.05 217.21-17.13 219.59-16.2 221.24-14.33 222.89-12.45 222.89-9.25L222.89-9.25Q222.89-6.6 221.46-4.42 220.04-2.25 217.09-0.98 214.14 0.3 209.84 0.3L209.84 0.3ZM246.13 0.3Q240.93 0.3 236.76-2 232.58-4.3 230.21-8.38 227.83-12.45 227.83-17.5L227.83-17.5Q227.83-22.55 230.21-26.63 232.58-30.7 236.78-33 240.98-35.3 246.18-35.3L246.18-35.3Q250.08-35.3 253.38-34 256.68-32.7 258.98-30.2L258.98-30.2 256.63-27.85Q252.53-32 246.28-32L246.28-32Q242.13-32 238.73-30.1 235.33-28.2 233.41-24.9 231.48-21.6 231.48-17.5L231.48-17.5Q231.48-13.4 233.41-10.1 235.33-6.8 238.73-4.9 242.13-3 246.28-3L246.28-3Q252.58-3 256.63-7.2L256.63-7.2 258.98-4.85Q256.68-2.35 253.36-1.03 250.03 0.3 246.13 0.3L246.13 0.3ZM281.43 0.3Q276.23 0.3 272-2.02 267.78-4.35 265.41-8.4 263.03-12.45 263.03-17.5L263.03-17.5Q263.03-22.55 265.41-26.6 267.78-30.65 272-32.98 276.23-35.3 281.43-35.3L281.43-35.3Q286.63-35.3 290.81-33 294.98-30.7 297.38-26.63 299.78-22.55 299.78-17.5L299.78-17.5Q299.78-12.45 297.38-8.38 294.98-4.3 290.81-2 286.63 0.3 281.43 0.3L281.43 0.3ZM281.43-3Q285.58-3 288.93-4.88 292.28-6.75 294.18-10.08 296.08-13.4 296.08-17.5L296.08-17.5Q296.08-21.6 294.18-24.93 292.28-28.25 288.93-30.13 285.58-32 281.43-32L281.43-32Q277.28-32 273.91-30.13 270.53-28.25 268.61-24.93 266.68-21.6 266.68-17.5L266.68-17.5Q266.68-13.4 268.61-10.08 270.53-6.75 273.91-4.88 277.28-3 281.43-3L281.43-3ZM321.18-35Q327.88-35 331.68-31.8 335.48-28.6 335.48-23L335.48-23Q335.48-17.4 331.68-14.23 327.88-11.05 321.18-11.05L321.18-11.05 311.78-11.05 311.78 0 308.08 0 308.08-35 321.18-35ZM321.08-14.3Q326.28-14.3 329.03-16.57 331.78-18.85 331.78-23L331.78-23Q331.78-27.25 329.03-29.53 326.28-31.8 321.08-31.8L321.08-31.8 311.78-31.8 311.78-14.3 321.08-14.3ZM347.17-3.2L368.22-3.2 368.22 0 343.47 0 343.47-35 367.47-35 367.47-31.8 347.17-31.8 347.17-19.35 365.27-19.35 365.27-16.2 347.17-16.2 347.17-3.2Z" opacity="1" transform="matrix(1,0,0,1,0,0)" fill="#31c48d" class="undefined-text-0" 
data-fill-palette-color="primary" id="text-0"></path></svg></g></svg></g></svg></g></svg></g></svg></g><defs></defs></svg><rect width="395.52" height="101.725823893058" fill="none" stroke="none" visibility="hidden"></rect></g></svg></g></svg>